<?xml version="1.0" standalone="no"?>
<!DOCTYPE svg PUBLIC "-//W3C//DTD SVG 20010904//EN"
 "http://www.w3.org/TR/2001/REC-SVG-20010904/DTD/svg10.dtd">
<svg version="1.0" xmlns="http://www.w3.org/2000/svg"
 width="260.000000pt" height="90.000000pt" viewBox="0 0 260.000000 90.000000"
 preserveAspectRatio="xMidYMid meet">

<g transform="translate(0.000000,90.000000) scale(0.100000,-0.100000)"
fill="#000000" stroke="none">
<path d="M690 430 l0 -190 30 0 29 0 3 131 3 131 84 -131 c69 -108 87 -131
107 -131 l24 0 0 190 0 190 -25 0 -25 0 0 -131 c0 -71 -4 -128 -9 -125 -4 3
-44 62 -87 131 -70 111 -82 125 -106 125 l-28 0 0 -190z"/>
<path d="M1150 430 l0 -190 120 0 120 0 0 25 c0 24 -2 24 -92 27 l-93 3 0 55
0 55 78 3 c74 3 77 4 77 27 0 24 -2 25 -81 25 l-80 0 3 53 3 52 93 3 c90 3 92
3 92 27 l0 25 -120 0 -120 0 0 -190z"/>
<path d="M1580 607 c-34 -17 -62 -74 -54 -112 8 -45 53 -81 110 -90 27 -4 56
-11 65 -16 25 -13 29 -46 9 -72 -22 -27 -89 -30 -137 -5 -30 15 -33 15 -47 -1
-23 -25 -21 -30 27 -51 50 -23 137 -26 176 -5 58 29 67 128 16 172 -15 13 -46
25 -76 29 -27 4 -60 15 -72 24 -18 15 -20 22 -12 46 14 39 54 50 111 31 43
-14 45 -14 60 7 14 20 13 22 -23 38 -45 21 -118 23 -153 5z"/>
<path d="M1985 611 c-39 -16 -60 -51 -60 -98 0 -38 5 -49 32 -73 21 -19 48
-31 80 -36 26 -3 56 -11 66 -16 22 -11 23 -61 0 -79 -23 -20 -105 -16 -138 5
-26 17 -27 17 -41 -1 -21 -28 -18 -32 32 -55 36 -15 61 -19 107 -16 52 4 64 9
88 36 35 39 38 83 9 129 -19 31 -66 53 -115 53 -63 0 -86 72 -32 98 24 12 35
12 75 -2 46 -15 48 -15 66 7 18 22 18 22 -20 39 -41 18 -115 22 -149 9z"/>
</g>
</svg>
